<svg width="150" height="150" viewBox="0 0 150 150" fill="none" xmlns="http://www.w3.org/2000/svg">
<path d="M75 0C54.625 0 52.0812 0.09375 44.0812 0.45C36.0937 0.825 30.6562 2.08125 25.875 3.9375C20.9437 5.85 16.7562 8.41875 12.5875 12.5875C8.41875 16.7562 5.84375 20.9375 3.9375 25.875C2.08125 30.6562 0.81875 36.0937 0.45 44.0812C0.075 52.0812 0 54.625 0 75C0 95.375 0.09375 97.9188 0.45 105.919C0.825 113.9 2.08125 119.344 3.9375 124.125C5.85 129.05 8.41875 133.244 12.5875 137.413C16.7562 141.575 20.9375 144.156 25.875 146.063C30.6625 147.913 36.1 149.181 44.0812 149.55C52.0812 149.925 54.625 150 75 150C95.375 150 97.9188 149.906 105.919 149.55C113.9 149.175 119.344 147.913 124.125 146.063C129.05 144.15 133.244 141.575 137.413 137.413C141.575 133.244 144.156 129.069 146.063 124.125C147.913 119.344 149.181 113.9 149.55 105.919C149.925 97.9188 150 95.375 150 75C150 54.625 149.906 52.0812 149.55 44.0812C149.175 36.1 147.913 30.65 146.063 25.875C144.15 20.9437 141.575 16.7562 137.413 12.5875C133.244 8.41875 129.069 5.84375 124.125 3.9375C119.344 2.08125 113.9 0.81875 105.919 0.45C97.9188 0.075 95.375 0 75 0ZM75 13.5C95.0188 13.5 97.4063 13.6 105.313 13.9437C112.625 14.2875 116.594 15.5 119.231 16.5375C122.744 17.8937 125.231 19.5188 127.869 22.1375C130.487 24.7625 132.112 27.2562 133.469 30.7687C134.494 33.4062 135.719 37.375 136.05 44.6875C136.406 52.6 136.487 54.975 136.487 75C136.487 95.025 136.394 97.4063 136.025 105.313C135.644 112.625 134.425 116.594 133.394 119.231C131.994 122.744 130.4 125.231 127.775 127.869C125.156 130.487 122.625 132.112 119.15 133.469C116.525 134.494 112.494 135.719 105.181 136.05C97.2188 136.406 94.875 136.487 74.8125 136.487C54.7438 136.487 52.4 136.394 44.4438 136.025C37.125 135.644 33.0937 134.425 30.4688 133.394C26.9125 131.994 24.4688 130.4 21.85 127.775C19.2188 125.156 17.5375 122.625 16.225 119.15C15.1937 116.525 13.9813 112.494 13.6 105.181C13.3188 97.3063 13.2188 94.875 13.2188 74.9062C13.2188 54.9312 13.3188 52.4938 13.6 44.525C13.9813 37.2125 15.1937 33.1875 16.225 30.5625C17.5375 27 19.2188 24.5625 21.85 21.9313C24.4688 19.3125 26.9125 17.625 30.4688 16.3188C33.0937 15.2813 37.0375 14.0625 44.35 13.6875C52.3188 13.4063 54.6625 13.3125 74.7187 13.3125L75 13.5V13.5ZM75 36.4875C53.7188 36.4875 36.4875 53.7375 36.4875 75C36.4875 96.2812 53.7375 113.513 75 113.513C96.2812 113.513 113.513 96.2625 113.513 75C113.513 53.7188 96.2625 36.4875 75 36.4875ZM75 100C61.1875 100 50 88.8125 50 75C50 61.1875 61.1875 50 75 50C88.8125 50 100 61.1875 100 75C100 88.8125 88.8125 100 75 100ZM124.038 34.9687C124.038 39.9375 120 43.9687 115.038 43.9687C110.069 43.9687 106.037 39.9312 106.037 34.9687C106.037 30.0062 110.075 25.975 115.038 25.975C119.994 25.9688 124.038 30.0062 124.038 34.9687Z" fill="white"/>
</svg>
