<svg width="142" height="150" viewBox="0 0 142 150" fill="none" xmlns="http://www.w3.org/2000/svg">
<path d="M51.9285 95.7693L50.8611 105.85C50.775 106.664 51.0381 107.475 51.5854 108.083C52.1324 108.691 52.912 109.038 53.7301 109.038H84.232C85.0497 109.038 85.8294 108.691 86.3767 108.083C86.9237 107.475 87.1868 106.664 87.101 105.85L86.0336 95.7693H124.027C129.94 95.7693 134.751 90.9587 134.751 85.0453V10.724C134.75 4.81062 129.939 0 124.026 0H11.6277C5.71432 0 0.9037 4.81062 0.9037 10.724V85.0453C0.9037 90.9587 5.71432 95.7693 11.6277 95.7693H51.9285ZM81.0253 103.269H56.9361L57.7299 95.7693H80.231L81.0253 103.269ZM11.6277 5.76951H124.026C126.758 5.76951 128.981 7.99193 128.981 10.724V76.1537H6.67321V10.724C6.67321 7.99193 8.89563 5.76951 11.6277 5.76951ZM6.67321 85.0453V81.9232H128.98V85.0453C128.98 87.7773 126.758 89.9998 124.026 89.9998H11.6277C8.89563 89.9998 6.67321 87.7773 6.67321 85.0453Z" fill="white"/>
<path d="M123.947 128.42C124.47 127.559 124.505 126.487 124.04 125.592L118.343 114.631C117.846 113.676 116.86 113.076 115.783 113.076H19.8708C18.7946 113.076 17.8076 113.676 17.311 114.631L11.6135 125.592C11.1488 126.487 11.1842 127.559 11.7073 128.42C12.2304 129.282 13.1655 129.807 14.1732 129.807H121.481C122.488 129.808 123.424 129.282 123.947 128.42ZM18.9238 124.038L21.6224 118.846H114.031L116.73 124.038H18.9238Z" fill="white"/>
<path d="M128.981 135H124.365C117.685 135 112.249 140.435 112.249 147.115C112.249 148.708 113.541 150 115.134 150H138.211C139.804 150 141.096 148.708 141.096 147.115C141.096 140.435 135.661 135 128.981 135ZM118.714 144.23C119.766 142.178 121.904 140.769 124.365 140.769H128.981C131.442 140.769 133.58 142.178 134.633 144.23H118.714Z" fill="white"/>
</svg>
