<svg width="159" height="309" viewBox="0 0 159 309" fill="none" xmlns="http://www.w3.org/2000/svg">
<g filter="url(#filter0_d_3_20)">
<path d="M4.78796 20.9659C4.78796 9.92019 13.7423 0.965885 24.788 0.965885H134.788C145.834 0.965885 154.788 9.92019 154.788 20.9659V280.966C154.788 292.012 145.834 300.966 134.788 300.966H24.788C13.7423 300.966 4.78796 292.012 4.78796 280.966V20.9659Z" fill="#EEEEEE"/>
</g>
<rect x="9.78796" y="32.4856" width="140" height="150" rx="20" fill="#C4C4C4"/>
<line x1="9.78796" y1="220.466" x2="149.788" y2="220.466" stroke="#CECECE"/>
<line x1="9.78796" y1="220.466" x2="78.788" y2="220.466" stroke="#008000"/>
<path d="M119.788 254.466L104.788 245.806V263.126L119.788 254.466Z" fill="#008000"/>
<rect x="116.788" y="244.466" width="3" height="20" fill="#008000"/>
<rect x="39.788" y="244.466" width="3" height="20" fill="#008000"/>
<path d="M39.788 254.466L54.788 245.806V263.126L39.788 254.466Z" fill="#008000"/>
<circle cx="79.788" cy="254.466" r="13.5" fill="#008000"/>
<circle cx="77.788" cy="220.966" r="2" fill="#008000"/>
<defs>
<filter id="filter0_d_3_20" x="0.787964" y="0.965885" width="158" height="308" filterUnits="userSpaceOnUse" color-interpolation-filters="sRGB">
<feFlood flood-opacity="0" result="BackgroundImageFix"/>
<feColorMatrix in="SourceAlpha" type="matrix" values="0 0 0 0 0 0 0 0 0 0 0 0 0 0 0 0 0 0 127 0" result="hardAlpha"/>
<feOffset dy="4"/>
<feGaussianBlur stdDeviation="2"/>
<feComposite in2="hardAlpha" operator="out"/>
<feColorMatrix type="matrix" values="0 0 0 0 0 0 0 0 0 0 0 0 0 0 0 0 0 0 0.25 0"/>
<feBlend mode="normal" in2="BackgroundImageFix" result="effect1_dropShadow_3_20"/>
<feBlend mode="normal" in="SourceGraphic" in2="effect1_dropShadow_3_20" result="shape"/>
</filter>
</defs>
</svg>
