<svg width="150" height="150" viewBox="0 0 150 150" fill="none" xmlns="http://www.w3.org/2000/svg">
<path d="M90.6252 37.4994V56.25H103.125V37.4994C103.125 34.0623 100.312 31.2501 96.8742 31.2501C93.4377 31.2501 90.6252 34.0623 90.6252 37.4994Z" fill="#ABB8B9"/>
<path d="M128.124 37.4994V56.25H140.624V37.4994C140.624 34.0623 137.812 31.2501 134.374 31.2501C130.937 31.2501 128.124 34.0623 128.124 37.4994Z" fill="#ABB8B9"/>
<path d="M128.124 56.25H103.125H90.6255H88.5419C86.2509 56.25 84.375 58.1259 84.375 60.4169V64.5838C84.375 66.8751 86.2509 68.7507 88.5419 68.7507H90.6255H140.624H142.708C145 68.7507 146.875 66.8751 146.875 64.5838V60.4169C146.875 58.1259 145 56.25 142.708 56.25H140.624H128.124Z" fill="#ED8C18"/>
<path d="M140.624 68.7507H90.6252V81.2502C90.6252 94.9998 101.875 106.249 115.625 106.249C129.374 106.249 140.624 94.9995 140.624 81.2502V68.7507H140.624Z" fill="black"/>
<path d="M143.75 53.2005V37.4997C143.75 32.3306 139.544 28.1253 134.374 28.1253C129.205 28.1253 125 32.3306 125 37.4997V53.1249H106.251V37.4997C106.251 32.3306 102.045 28.1253 96.8751 28.1253C91.706 28.1253 87.501 32.3306 87.501 37.4997V53.2005C83.9719 53.7073 81.2505 56.7498 81.2505 60.4169V64.5838C81.2505 68.2509 83.9719 71.2931 87.501 71.8002V81.2499C87.501 95.7015 98.458 107.64 112.5 109.199V118.75C112.5 132.534 101.285 143.749 87.5007 143.749C73.7159 143.749 62.5011 132.534 62.5011 118.75V31.2624C62.5011 31.2583 62.5017 31.2545 62.5017 31.2501C62.5005 14.0188 48.4816 0 31.2501 0C14.0188 0 0.000292778 14.0188 0.000292778 31.2501V118.75C0.000292778 120.476 1.39951 121.875 3.12539 121.875C4.85127 121.875 6.25049 120.476 6.25049 118.75V31.2501C6.25049 17.4653 17.4653 6.25049 31.2498 6.25049C45.0325 6.25049 56.2453 17.4609 56.2494 31.2422C56.2494 31.2451 56.2491 31.2475 56.2491 31.2504V118.75C56.2491 135.981 70.268 150 87.4992 150C104.73 150 118.749 135.981 118.749 118.75V109.2C132.792 107.64 143.749 95.7015 143.749 81.2502V71.8005C147.278 71.2934 149.999 68.2512 149.999 64.5841V60.4172C150 56.7498 147.279 53.7076 143.75 53.2005ZM131.25 37.4994C131.25 35.7768 132.651 34.3755 134.375 34.3755C136.098 34.3755 137.499 35.7768 137.499 37.4994V53.1246H131.249L131.25 37.4994ZM96.8757 34.3755C98.5983 34.3755 99.9993 35.7768 99.9993 37.4994V53.1246H93.7503V37.4994C93.7506 35.7768 95.1519 34.3755 96.8757 34.3755ZM115.625 103.124C103.564 103.124 93.7509 93.3111 93.7509 81.2499V71.8758H137.499V81.2499C137.499 93.3111 127.686 103.124 115.625 103.124ZM143.75 64.5838C143.75 65.1486 143.273 65.6253 142.708 65.6253H88.5416C87.9768 65.6253 87.5001 65.1483 87.5001 64.5838V60.4169C87.5001 59.8521 87.9771 59.3754 88.5416 59.3754H142.708C143.273 59.3754 143.75 59.8523 143.75 60.4169V64.5838H143.75Z" fill="white"/>
<path d="M115.625 90.6246C110.544 90.6246 106.25 86.3317 106.25 81.2502C106.25 79.524 104.851 78.1251 103.125 78.1251C101.4 78.1251 100 79.5243 100 81.2502C100 89.8655 107.01 96.8751 115.625 96.8751C117.352 96.8751 118.75 95.4759 118.75 93.75C118.75 92.0235 117.351 90.6246 115.625 90.6246Z" fill="white"/>
<path d="M122.036 88.0506L121.92 88.1593C120.65 89.3282 120.568 91.3052 121.736 92.5752C122.353 93.2449 123.193 93.5845 124.037 93.5845C124.793 93.5845 125.552 93.3114 126.152 92.7589C126.213 92.7029 126.275 92.6452 126.335 92.5875C127.588 91.4001 127.641 89.4223 126.454 88.1692C125.267 86.9162 123.289 86.8632 122.036 88.0506Z" fill="white"/>
</svg>
